<?xml version="1.0" encoding="iso-8859-1"?>
<!-- Uploaded to: SVG Repo, www.svgrepo.com, Generator: SVG Repo Mixer Tools -->
<!DOCTYPE svg PUBLIC "-//W3C//DTD SVG 1.1//EN" "http://www.w3.org/Graphics/SVG/1.1/DTD/svg11.dtd">
<svg fill="#000000" version="1.1" id="Capa_1" xmlns="http://www.w3.org/2000/svg" xmlns:xlink="http://www.w3.org/1999/xlink" 
	 width="800px" height="800px" viewBox="0 0 326.098 326.098"
	 xml:space="preserve">
<g>
	<g>
		<path d="M326.098,162.401c0-16.702-27.04-31.273-67.206-39.051c22.902-33.898,31.716-63.328,19.909-75.137
			c-11.884-11.881-41.622-2.851-75.797,20.378C195.293,27.672,180.582,0,163.696,0c-17,0-31.788,28.04-39.455,69.397
			C89.59,45.591,59.313,36.2,47.297,48.213C35.356,60.154,44.54,90.12,68.015,124.495C27.408,132.231,0,146.888,0,163.696
			c0,16.699,27.042,31.271,67.207,39.048c-22.9,33.901-31.719,63.328-19.91,75.14c11.884,11.884,41.625,2.854,75.797-20.376
			c7.71,40.918,22.419,68.59,39.307,68.59c17,0,31.789-28.04,39.453-69.397c34.651,23.809,64.934,33.197,76.946,21.184
			c11.94-11.94,2.755-41.906-20.718-76.279C298.69,193.869,326.098,179.21,326.098,162.401z M162.402,172.773l-4.58,1.968
			l-2.105-5.277l-4.158-1.662l1.766-4.111l-2.242-5.217l4.634-1.851l2.294-5.748l5.691,2.444l4.581-1.968l2.104,5.276l4.158,1.659
			l-1.766,4.114l2.241,5.215l-4.634,1.854l-2.294,5.748L162.402,172.773z"/>
	</g>
</g>
</svg>